<?xml version="1.0" encoding="UTF-8" standalone="no"?>
<!-- Created with Inkscape (http://www.inkscape.org/) -->

<svg width="93.368629mm" height="93.894196mm" viewBox="0 0 93.36863 93.894196" version="1.1" id="svg5" xmlns="http://www.w3.org/2000/svg" xmlns:svg="http://www.w3.org/2000/svg"> <defs id="defs2" /> <g id="layer1" transform="translate(-0.85790789,1.3741569)"> <path style="font-variation-settings:'wght' 300;fill:inherit;fill-opacity:1;stroke-width:2.70992;stroke-linecap:round;stroke-linejoin:round;stroke-miterlimit:4;stroke-dasharray:none;paint-order:stroke fill markers" id="path1132" d="m 311.77438,287.96558 c 0,21.51661 -10.42187,19.22593 -15.57113,40.11731 -5.14927,20.89138 5.14338,23.70636 -4.85589,42.75838 -9.99927,19.05202 -18.16285,12.18043 -32.431,28.28585 -14.26816,16.10541 -6.46266,23.38119 -24.17049,35.60402 -17.70782,12.22283 -21.74293,2.34454 -41.86131,9.97444 -20.11838,7.62989 -16.58818,17.69967 -37.94792,20.29321 -21.35973,2.59354 -20.34197,-8.02846 -41.7017,-10.622 C 91.875203,451.78325 90.321385,462.34016 70.203,454.71026 50.084615,447.08037 55.92209,438.14803 38.214263,425.9252 20.506436,413.70237 14.224558,422.32796 -0.04359777,406.22254 -14.311753,390.11712 -4.9918636,384.92074 -14.991133,365.86873 c -9.99927,-19.05202 -19.570105,-14.33378 -24.719368,-35.22516 -5.149263,-20.89138 5.517966,-21.16138 5.517966,-42.67799 0,-21.51662 -10.667229,-21.78661 -5.517966,-42.678 5.149263,-20.89138 14.720098,-16.17314 24.719367,-35.22515 9.9992701,-19.05202 0.679381,-24.2484 14.94753623,-40.35382 C 14.224557,153.6032 20.506435,162.22878 38.214262,150.00595 55.92209,137.78312 50.084615,128.85079 70.203,121.22089 c 20.118384,-7.6299 21.672203,2.92701 43.03194,0.33347 21.35973,-2.59354 20.34197,-13.21554 41.7017,-10.622 21.35974,2.59354 17.82953,12.66332 37.94792,20.29321 20.11838,7.6299 24.15349,-2.24839 41.86131,9.97444 17.70783,12.22283 9.90233,19.49861 24.17049,35.60402 14.26815,16.10542 22.43173,9.23384 32.431,28.28585 9.99927,19.05202 -0.29338,21.867 4.85589,42.75838 5.14926,20.89139 15.57113,18.6007 15.57113,40.11732 z" transform="matrix(0.26458333,0,0,0.26458333,11.736235,-30.617949)" /> </g> </svg>