<?xml version="1.0" encoding="UTF-8" standalone="no"?>
<!-- Created with Inkscape (http://www.inkscape.org/) -->

<svg width="93.733437mm" height="94.059639mm" viewBox="0 0 93.733437 94.059639" version="1.1" id="svg5" xmlns="http://www.w3.org/2000/svg" xmlns:svg="http://www.w3.org/2000/svg"> <defs id="defs2" /> <g id="layer1" transform="translate(-0.493103,1.456877)"> <path style="font-variation-settings:'wght' 300;fill:inherit;fill-opacity:1;stroke-width:2.70992;stroke-linecap:round;stroke-linejoin:round;stroke-miterlimit:4;stroke-dasharray:none;paint-order:stroke fill markers" id="path1132" d="m 311.77438,287.96558 c 0,16.64605 -8.74261,14.76763 -11.80131,31.13025 -3.0587,16.36262 5.7721,17.76925 -0.24115,33.29122 -6.01324,15.52198 -13.48693,10.61222 -22.24994,24.76498 -8.76302,14.15275 -1.03667,18.65445 -12.25104,30.95603 -11.21437,12.30157 -16.40976,5.02355 -29.69359,15.05504 -13.28384,10.03148 -7.70543,17.02027 -22.60637,24.44005 -14.90093,7.41978 -17.11636,-1.24356 -33.12696,3.31184 -16.01059,4.55541 -13.33353,13.08741 -29.90857,14.62331 -16.57504,1.53591 -15.5113,-7.34273 -32.08634,-8.87863 -16.57504,-1.53591 -17.16087,7.38701 -33.171461,2.83161 C 68.627052,454.93587 72.826286,447.04105 57.925355,439.62127 43.024423,432.20149 39.254828,440.31024 25.970995,430.27875 12.687161,420.24727 19.454767,414.40251 8.2403964,402.10093 -2.973974,389.79935 -9.418235,395.9988 -18.18125,381.84605 c -8.763016,-14.15276 -0.341041,-17.15809 -6.354288,-32.68007 -6.013246,-15.52198 -14.26184,-12.0691 -17.320543,-28.43172 -3.058704,-16.36261 5.880205,-16.12264 5.880205,-32.76868 0,-16.64605 -8.938909,-16.40607 -5.880205,-32.76869 3.058703,-16.36262 11.307297,-12.90974 17.320544,-28.43172 6.013246,-15.52198 -2.408729,-18.52731 6.354287,-32.68007 8.7630152,-14.15275 15.2072762,-7.9533 26.4216469,-20.25488 11.2143701,-12.30158 4.4467641,-18.14634 17.7305981,-28.17782 13.283834,-10.03149 17.053428,-1.92274 31.95436,-9.34252 14.900932,-7.41978 10.701697,-15.3146 26.712294,-19.87 16.010601,-4.55541 16.596421,4.36751 33.171461,2.8316 16.57504,-1.5359 15.5113,-10.41453 32.08634,-8.87863 16.57504,1.5359 13.89798,10.0679 29.90857,14.62331 16.0106,4.55541 18.22603,-4.10794 33.12696,3.31184 14.90094,7.41979 9.32253,14.40857 22.60637,24.44006 13.28383,10.03148 18.47922,2.75346 29.69359,15.05504 11.21437,12.30158 3.48802,16.80327 12.25104,30.95603 8.76301,14.15275 16.2367,9.24299 22.24994,24.76497 6.01325,15.52198 -2.81755,16.9286 0.24115,33.29122 3.0587,16.36262 11.80131,14.48421 11.80131,31.13026 z" transform="matrix(0.26458333,0,0,0.26458333,11.736235,-30.617949)" /> </g> </svg>