<?xml version="1.0" encoding="UTF-8" standalone="no"?>
<!-- Created with Inkscape (http://www.inkscape.org/) -->

<svg width="92.549217mm" height="93.556908mm" viewBox="0 0 92.549218 93.556908" version="1.1" id="svg5" xmlns="http://www.w3.org/2000/svg" xmlns:svg="http://www.w3.org/2000/svg"> <defs id="defs2" /> <g id="layer1" transform="translate(-1.6773229,1.2055117)"> <path style="font-variation-settings:'wght' 300;fill:inherit;fill-opacity:1;stroke-width:2.70992;stroke-linecap:round;stroke-linejoin:round;stroke-miterlimit:4;stroke-dasharray:none;paint-order:stroke fill markers" id="path1132" d="m 311.77438,287.96558 c 0,30.54732 -13.71331,27.40904 -24.16111,56.11414 -10.4478,28.7051 2.07445,35.11579 -17.56099,58.5164 -19.63545,23.40061 -28.12321,12.1818 -54.57797,27.45546 -26.45476,15.27367 -20.98287,28.23369 -51.06611,33.53818 -30.08325,5.30448 -29.37394,-8.74545 -59.45718,-14.04994 -30.083246,-5.30449 -34.222073,8.14073 -60.676835,-7.13293 -26.454762,-15.27367 -16.880274,-25.5806 -36.515718,-48.98122 -19.635444,-23.40061 -31.448389,-15.76136 -41.896191,-44.46646 -10.447801,-28.70509 3.511854,-30.44631 3.511854,-60.99363 0,-30.54733 -13.959655,-32.28854 -3.511854,-60.99364 10.447802,-28.7051 22.260747,-21.06585 41.8961909,-44.46646 19.6354441,-23.40061 10.0609561,-33.70755 36.5157181,-48.98122 26.454762,-15.27366 30.593589,-1.82844 60.676835,-7.13293 30.08324,-5.30449 29.37393,-19.35442 59.45718,-14.04993 30.08324,5.30448 24.61135,18.26451 51.06611,33.53817 26.45476,15.27366 34.94252,4.05485 54.57797,27.45546 19.63544,23.40061 7.11319,29.8113 17.56099,58.5164 10.4478,28.7051 24.16111,25.56682 24.16111,56.11415 z" transform="matrix(0.26458333,0,0,0.26458333,11.736235,-30.617949)" /> </g> </svg>