<?xml version="1.0" encoding="UTF-8" standalone="no"?>
<!-- Created with Inkscape (http://www.inkscape.org/) -->

<svg width="94.368126mm" height="93.790337mm" viewBox="0 0 94.368126 93.790337" version="1.1" id="svg5" xmlns="http://www.w3.org/2000/svg" xmlns:svg="http://www.w3.org/2000/svg"> <defs id="defs2" /> <g id="layer1" transform="translate(0.14158474,1.3222281)"> <path style="font-variation-settings:'wght' 300;fill:inherit;fill-opacity:1;stroke-width:2.70992;stroke-linecap:round;stroke-linejoin:round;stroke-miterlimit:4;stroke-dasharray:none;paint-order:stroke fill markers" id="path1132" d="m 311.77438,287.96558 c 0,10.93694 -5.29293,9.99365 -6.61123,20.85085 -1.3183,10.8572 4.04657,11.20801 1.42919,21.82714 -2.61738,10.61913 -7.53077,8.43658 -11.40906,18.66279 -3.8783,10.22622 1.24673,11.85073 -3.83592,21.53491 -5.08265,9.68418 -9.33094,6.3892 -15.54383,15.39012 -6.21289,9.00092 -1.62556,11.80473 -8.8781,19.99115 -7.25253,8.18641 -10.58883,3.97049 -18.77525,11.22303 -8.18642,7.25253 -4.40338,11.07268 -13.40431,17.28557 -9.00092,6.21289 -11.23134,1.32105 -20.91552,6.4037 -9.68418,5.08265 -6.9253,9.69713 -17.15151,13.57542 -10.22622,3.8783 -11.22114,-1.40518 -21.84027,1.21221 -10.61913,2.61738 -9.04473,7.75802 -19.90193,9.07632 -10.85719,1.3183 -10.55878,-4.04974 -21.49572,-4.04974 -10.93694,0 -10.63853,5.36804 -21.49573,4.04974 -10.85719,-1.3183 -9.2828,-6.45894 -19.901928,-9.07632 C 81.424131,453.30508 80.429215,458.58856 70.203,454.71026 59.976784,450.83197 62.735667,446.21749 53.051488,441.13484 43.36731,436.05219 41.136887,440.94403 32.135963,434.73114 23.135039,428.51825 26.918073,424.6981 18.731656,417.44557 10.54524,410.19303 7.208934,414.40895 -0.04359777,406.22254 -7.29613,398.03612 -2.7088015,395.23231 -8.9216911,386.23139 -15.13458,377.23047 -19.382875,380.52545 -24.465524,370.84127 c -5.082649,-9.68418 0.04237,-11.30869 -3.835917,-21.53491 -3.878292,-10.22621 -8.79168,-8.04366 -11.40906,-18.66279 -2.617381,-10.61913 2.747491,-10.96994 1.429188,-21.82714 -1.318302,-10.8572 -6.611235,-9.91392 -6.611235,-20.85085 0,-10.93694 5.292933,-9.99366 6.611236,-20.85086 1.318302,-10.85719 -4.04657,-11.208 -1.429189,-21.82714 2.617381,-10.61913 7.530768,-8.43657 11.409061,-18.66279 3.878291,-10.22622 -1.246733,-11.85073 3.835916,-21.53491 5.082649,-9.68418 9.330944,-6.38919 15.5438335,-15.39012 6.2128893,-9.00092 1.6255609,-11.80473 8.87809273,-19.99115 C 7.2089345,161.5222 10.54524,165.73812 18.731657,158.48559 c 8.186416,-7.25254 4.403382,-11.07269 13.404306,-17.28558 9.000925,-6.21289 11.231348,-1.32105 20.915526,-6.40369 9.684179,-5.08265 6.925295,-9.69714 17.151511,-13.57543 10.226215,-3.87829 11.221132,1.40518 21.840263,-1.2122 10.619127,-2.61738 9.044737,-7.75803 19.901927,-9.07633 10.8572,-1.3183 10.55879,4.04974 21.49573,4.04974 10.93694,0 10.63853,-5.36804 21.49572,-4.04974 10.8572,1.3183 9.2828,6.45895 19.90193,9.07633 10.61913,2.61738 11.61405,-2.66609 21.84027,1.2122 10.22621,3.87829 7.46733,8.49278 17.15151,13.57543 9.68418,5.08265 11.9146,0.1908 20.91552,6.40369 9.00093,6.21289 5.21789,10.03304 13.40431,17.28558 8.18642,7.25253 11.52272,3.03661 18.77525,11.22302 7.25254,8.18642 2.66521,10.99023 8.8781,19.99115 6.21289,9.00093 10.46118,5.70594 15.54383,15.39012 5.08265,9.68418 -0.0424,11.3087 3.83592,21.53491 3.87829,10.22622 8.79168,8.04366 11.40906,18.66279 2.61738,10.61914 -2.74749,10.96995 -1.42919,21.82714 1.3183,10.8572 6.61123,9.91392 6.61123,20.85086 z" transform="matrix(0.26458333,0,0,0.26458333,11.736235,-30.617949)" /> </g> </svg>